<svg width="1853" height="761" viewBox="0 0 1853 761" fill="none" xmlns="http://www.w3.org/2000/svg">
<path fill-rule="evenodd" clip-rule="evenodd" d="M750.39 415.76L755.929 417.816C759.076 418.984 760.68 422.483 759.512 425.63L756.647 433.347C755.531 436.355 752.27 437.979 749.205 437.032C738.536 433.736 726.847 429.901 715.001 425.996L712.064 425.028C692.49 418.575 672.715 412.055 657.675 408.038C649.915 405.966 642.612 404.333 636.99 403.899C634.426 403.701 630.666 403.6 627.096 404.8C625.17 405.447 622.414 406.765 620.2 409.518C617.775 412.532 616.952 416.076 617.165 419.255C617.564 425.199 619.385 430.906 621.269 435.854C622.35 438.694 623.76 442.017 625.092 445.159L625.092 445.159C625.921 447.113 626.72 448.998 627.392 450.652C631.377 460.464 633.944 469.206 632.814 478.199C632.117 483.753 630.162 486.067 628.313 487.345C626.018 488.931 621.942 490.218 615.176 490.117C601.456 489.914 582.463 484.148 562.139 475.573V475.573C561.38 475.253 560.831 474.575 560.682 473.764C555.744 446.881 557.958 417.424 568.597 388.762C571.93 379.784 576.895 366.41 579.693 358.874C580.861 355.727 584.359 354.126 587.506 355.294L593.046 357.351C621.768 368.013 650.926 366.917 678.54 355.375C681.692 354.058 685.361 355.42 686.89 358.475C700.285 385.24 721.667 405.097 750.39 415.76ZM583.326 509.069C578.223 507.598 573.634 512.652 576.236 517.281C584.294 531.611 594.891 544.148 607.709 554.052C608.635 554.767 609.758 555.184 610.926 555.246C663.978 558.062 717.402 523.831 743.362 467.673C744.87 464.41 743.075 460.62 739.643 459.55C729.274 456.318 718.241 452.693 707.382 449.114L704.832 448.274L704.831 448.274C684.906 441.705 665.733 435.384 651.395 431.555C650.997 431.449 650.606 431.345 650.221 431.244C648.085 430.684 646.285 432.793 647.151 434.824V434.824C648.001 436.816 648.916 438.963 649.943 441.491C654.241 452.072 658.913 465.726 656.966 481.232C655.565 492.385 650.677 501.476 642.154 507.368C634.078 512.95 624.255 514.596 614.815 514.456C605.114 514.312 594.346 512.248 583.326 509.069Z" fill="url(#paint0_linear_33_696)"/>
<path fill-rule="evenodd" clip-rule="evenodd" d="M379.733 376.573C374.908 355.245 388.286 334.043 409.614 329.218L519.746 304.303C541.074 299.478 562.276 312.856 567.101 334.184L590.452 437.403C602.157 489.144 569.702 540.576 517.962 552.281L509.619 554.169C501.187 556.076 492.764 556.696 484.556 556.159C472.773 555.387 467.321 542.46 472.476 531.836L491.364 492.908L501.364 499.157C503.953 500.363 505.279 498.534 506.847 495.368C507.735 493.449 507.285 492.733 506.215 491.03C506.122 490.881 506.024 490.726 505.922 490.561L497.978 478.294L507.049 458.65L533.322 474.203C541.564 478.038 544.15 472.473 545.396 469.791L545.401 469.78C547.731 464.738 545.835 462.006 543.968 459.315C543.884 459.195 543.801 459.074 543.717 458.953L519.849 430.924L530.841 407.119C533.012 402.429 531.728 396.204 527.064 394.036C522.402 391.864 516.702 394.861 514.532 399.554L503.458 423.355L466.661 423.114C466.514 423.129 466.367 423.143 466.22 423.157C462.966 423.467 459.659 423.782 457.332 428.818C456.089 431.502 453.509 437.083 461.765 440.922L490.612 450.964L481.45 470.663L466.741 472.23C464.555 472.447 463.356 473.342 462.745 474.851C462.705 474.971 462.615 475.158 462.5 475.396C461.812 476.824 460.242 480.079 463.307 481.504L475.121 485.29L455.585 525.552C450.621 535.783 437.806 539.737 429.609 531.856C417.697 520.405 408.89 505.456 404.972 488.135L379.733 376.573Z" fill="url(#paint1_linear_33_696)"/>
<path d="M713.147 334.975C712.478 336.716 710.524 337.585 708.783 336.916L670.791 322.32C669.05 321.651 668.181 319.698 668.85 317.957L674.235 303.952C676.049 299.234 681.52 296.905 686.393 298.777L712.971 308.988C717.844 310.86 720.346 316.252 718.532 320.97L713.147 334.975Z" fill="#7A14D9"/>
<path fill-rule="evenodd" clip-rule="evenodd" d="M649.621 307.875C642.642 305.239 634.847 308.759 632.211 315.738L619.396 349.664C618.955 350.832 618.686 352.023 618.577 353.209C618.436 354.753 619.673 356.001 621.214 356.176C642.25 358.569 662.192 354.146 683.894 345.124C685.622 344.406 687.612 345.199 688.398 346.896C696.486 364.343 709.22 380.203 724.559 393.098C725.961 394.277 728.092 394.086 728.902 392.444C729.096 392.051 729.272 391.645 729.43 391.227L742.245 357.301C744.881 350.322 741.361 342.528 734.382 339.892L649.621 307.875Z" fill="#5C10A3"/>
<path d="M943.133 429.591C924.38 429.591 908.021 425.8 894.055 418.219C880.09 410.439 869.217 399.765 861.437 386.199C853.656 372.633 849.766 357.072 849.766 339.515V212.93H909.617V344.902C909.617 351.685 911.113 357.471 914.106 362.259C917.098 367.047 921.088 370.738 926.076 373.331C931.263 375.725 936.949 376.922 943.133 376.922C949.517 376.922 955.104 375.725 959.892 373.331C964.879 370.738 968.77 367.146 971.563 362.558C974.356 357.77 975.752 351.984 975.752 345.201V212.93H1035.9V339.815C1035.9 357.371 1032.01 372.932 1024.23 386.498C1016.65 399.865 1005.88 410.439 991.912 418.219C978.146 425.8 961.887 429.591 943.133 429.591ZM1133.78 429.591C1115.62 429.591 1099.76 426.998 1086.19 421.81C1072.83 416.424 1060.46 407.945 1049.09 396.374L1086.49 358.967C1094.27 366.348 1102.45 372.034 1111.03 376.024C1119.61 379.815 1128.79 381.71 1138.56 381.71C1146.74 381.71 1152.93 380.513 1157.12 378.119C1161.31 375.526 1163.4 372.034 1163.4 367.645C1163.4 363.256 1161.61 359.665 1158.01 356.872C1154.42 353.88 1149.64 351.286 1143.65 349.091C1137.87 346.697 1131.38 344.303 1124.2 341.909C1117.22 339.515 1110.23 336.622 1103.25 333.231C1096.27 329.839 1089.78 325.75 1083.8 320.961C1078.01 315.974 1073.33 309.889 1069.73 302.707C1066.14 295.325 1064.35 286.348 1064.35 275.774C1064.35 262.008 1067.64 250.138 1074.22 240.163C1080.81 230.187 1090.08 222.606 1102.05 217.419C1114.02 212.033 1128.09 209.339 1144.25 209.339C1160.21 209.339 1174.97 211.933 1188.54 217.12C1202.3 222.107 1213.68 229.29 1222.65 238.666L1184.95 276.073C1178.36 269.689 1171.78 265.001 1165.2 262.008C1158.61 258.816 1151.43 257.22 1143.65 257.22C1137.47 257.22 1132.48 258.218 1128.69 260.213C1125.1 262.208 1123.3 265.2 1123.3 269.19C1123.3 273.38 1125.1 276.871 1128.69 279.664C1132.28 282.258 1136.97 284.652 1142.75 286.846C1148.74 289.041 1155.22 291.335 1162.2 293.729C1169.39 296.123 1176.47 299.016 1183.45 302.408C1190.43 305.6 1196.82 309.789 1202.6 314.976C1208.59 319.964 1213.38 326.248 1216.97 333.829C1220.56 341.411 1222.35 350.588 1222.35 361.361C1222.35 383.107 1214.57 399.965 1199.01 411.935C1183.65 423.706 1161.91 429.591 1133.78 429.591Z" fill="#7A14D9"/>
<path d="M844.661 567.209V469.741H869.268V567.209H844.661ZM864.182 567.209V546.45H916.971V567.209H864.182ZM864.182 527.617V507.408H912.022V527.617H864.182ZM864.182 490.499V469.741H916.146V490.499H864.182ZM991.337 567.209L964.942 523.768H962.468L925.35 469.741H954.632L980.477 510.708H982.951L1020.21 567.209H991.337ZM923.701 567.209L959.168 515.107L978.552 524.317L951.745 567.209H923.701ZM983.501 521.568L964.117 512.22L990.375 469.741H1018.42L983.501 521.568Z" fill="#FFA81C"/>
<path d="M1049.85 532.291V514.007H1069.1C1071.48 514.007 1073.63 513.549 1075.56 512.632C1077.57 511.624 1079.18 510.158 1080.37 508.233C1081.56 506.309 1082.16 503.926 1082.16 501.085C1082.16 498.244 1081.56 495.861 1080.37 493.936C1079.18 491.92 1077.57 490.454 1075.56 489.537C1073.63 488.529 1071.48 488.025 1069.1 488.025H1049.85V469.741H1073.36C1079.59 469.741 1085.23 471.024 1090.27 473.59C1095.31 476.065 1099.29 479.639 1102.23 484.313C1105.16 488.896 1106.63 494.486 1106.63 501.085C1106.63 507.5 1105.16 513.091 1102.23 517.856C1099.29 522.53 1095.31 526.105 1090.27 528.579C1085.23 531.054 1079.59 532.291 1073.36 532.291H1049.85ZM1030.33 567.209V469.741H1054.94V567.209H1030.33ZM1165.69 568.996C1158.17 568.996 1151.26 567.713 1144.93 565.147C1138.61 562.581 1133.06 559.006 1128.3 554.424C1123.62 549.841 1119.96 544.48 1117.3 538.34C1114.64 532.108 1113.31 525.417 1113.31 518.269C1113.31 511.12 1114.6 504.522 1117.16 498.473C1119.82 492.332 1123.49 486.971 1128.16 482.389C1132.83 477.806 1138.33 474.278 1144.66 471.803C1150.98 469.237 1157.9 467.954 1165.42 467.954C1172.93 467.954 1179.85 469.237 1186.17 471.803C1192.5 474.278 1198 477.806 1202.67 482.389C1207.34 486.971 1210.96 492.332 1213.53 498.473C1216.19 504.613 1217.52 511.258 1217.52 518.406C1217.52 525.555 1216.19 532.199 1213.53 538.34C1210.96 544.48 1207.34 549.887 1202.67 554.561C1198 559.144 1192.5 562.718 1186.17 565.284C1179.94 567.759 1173.11 568.996 1165.69 568.996ZM1165.42 547C1170.91 547 1175.68 545.809 1179.71 543.426C1183.74 541.043 1186.86 537.698 1189.06 533.391C1191.26 529.083 1192.36 524.043 1192.36 518.269C1192.36 514.053 1191.72 510.204 1190.44 506.721C1189.24 503.238 1187.46 500.26 1185.07 497.785C1182.69 495.219 1179.85 493.249 1176.55 491.874C1173.25 490.499 1169.54 489.812 1165.42 489.812C1159.92 489.812 1155.15 491.003 1151.12 493.386C1147.09 495.677 1143.97 498.977 1141.77 503.284C1139.57 507.592 1138.47 512.587 1138.47 518.269C1138.47 522.668 1139.07 526.654 1140.26 530.229C1141.54 533.711 1143.37 536.736 1145.76 539.302C1148.14 541.776 1150.98 543.701 1154.28 545.076C1157.58 546.359 1161.29 547 1165.42 547ZM1249.35 527.754V510.158H1267.9C1271.94 510.158 1275.01 509.196 1277.11 507.271C1279.31 505.255 1280.41 502.551 1280.41 499.16C1280.41 495.861 1279.31 493.203 1277.11 491.187C1275.01 489.079 1271.94 488.025 1267.9 488.025H1249.35V469.741H1271.34C1277.94 469.741 1283.71 470.978 1288.66 473.453C1293.7 475.927 1297.64 479.318 1300.48 483.626C1303.33 487.933 1304.75 492.974 1304.75 498.748C1304.75 504.522 1303.28 509.608 1300.35 514.007C1297.51 518.315 1293.52 521.706 1288.39 524.18C1283.25 526.563 1277.25 527.754 1270.38 527.754H1249.35ZM1229.82 567.209V469.741H1254.43V567.209H1229.82ZM1282.61 567.209L1254.29 525.417L1276.43 520.056L1311.07 567.209H1282.61ZM1340.19 567.209V470.428H1364.8V567.209H1340.19ZM1310.36 490.912V469.741H1394.63V490.912H1310.36ZM1431.51 568.721C1423.35 568.721 1416.25 567.484 1410.2 565.009C1404.25 562.535 1398.79 558.64 1393.84 553.324L1409.38 537.652C1412.77 541.227 1416.39 543.976 1420.24 545.901C1424.09 547.734 1428.44 548.65 1433.3 548.65C1437.42 548.65 1440.58 547.963 1442.78 546.588C1445.08 545.122 1446.22 543.151 1446.22 540.677C1446.22 538.385 1445.4 536.507 1443.75 535.04C1442.1 533.482 1439.9 532.153 1437.15 531.054C1434.49 529.862 1431.51 528.762 1428.21 527.754C1425 526.654 1421.75 525.371 1418.45 523.905C1415.24 522.347 1412.27 520.468 1409.52 518.269C1406.86 516.069 1404.7 513.32 1403.05 510.02C1401.41 506.721 1400.58 502.643 1400.58 497.785C1400.58 491.553 1402.05 486.238 1404.98 481.839C1408 477.44 1412.17 474.049 1417.49 471.666C1422.8 469.283 1428.99 468.091 1436.05 468.091C1443.11 468.091 1449.61 469.283 1455.57 471.666C1461.53 474.049 1466.43 477.348 1470.28 481.564L1454.61 497.098C1451.67 494.165 1448.7 491.966 1445.67 490.499C1442.65 489.033 1439.35 488.3 1435.77 488.3C1432.38 488.3 1429.72 488.896 1427.8 490.087C1425.88 491.278 1424.91 492.974 1424.91 495.173C1424.91 497.373 1425.74 499.16 1427.39 500.535C1429.04 501.91 1431.19 503.147 1433.85 504.247C1436.6 505.255 1439.58 506.309 1442.78 507.408C1446.08 508.508 1449.34 509.791 1452.54 511.258C1455.75 512.724 1458.69 514.603 1461.34 516.894C1464.09 519.185 1466.29 522.072 1467.94 525.555C1469.59 529.037 1470.42 533.253 1470.42 538.202C1470.42 547.917 1466.98 555.432 1460.11 560.748C1453.32 566.063 1443.79 568.721 1431.51 568.721Z" fill="#5C10A3"/>
<path d="M1370.69 429.591C1354.14 429.591 1338.77 426.898 1324.61 421.511C1310.64 415.925 1298.37 408.144 1287.8 398.169C1277.43 388.194 1269.35 376.523 1263.56 363.156C1257.78 349.79 1254.88 335.226 1254.88 319.465C1254.88 303.505 1257.88 288.841 1263.86 275.475C1270.05 262.108 1278.52 250.537 1289.3 240.761C1300.27 230.786 1312.94 223.105 1327.3 217.718C1341.67 212.132 1357.03 209.339 1373.39 209.339C1393.14 209.339 1410.79 212.731 1426.36 219.514C1442.12 226.297 1454.89 235.474 1464.66 247.045L1424.26 287.445C1416.88 278.866 1409.2 272.482 1401.22 268.293C1393.24 264.103 1383.66 262.008 1372.49 262.008C1361.92 262.008 1352.34 264.402 1343.76 269.19C1335.18 273.779 1328.3 280.362 1323.11 288.941C1318.13 297.52 1315.63 307.595 1315.63 319.166C1315.63 330.737 1317.93 340.912 1322.51 349.69C1327.3 358.269 1333.89 364.952 1342.27 369.74C1350.64 374.528 1360.42 376.922 1371.59 376.922C1382.37 376.922 1391.44 374.827 1398.82 370.638C1406.21 366.448 1411.79 360.463 1415.58 352.682C1419.57 344.902 1421.57 335.725 1421.57 325.151L1462.57 351.186L1363.51 348.194V300.313H1481.72V309.29C1481.72 334.827 1477.03 356.573 1467.65 374.528C1458.48 392.483 1445.51 406.149 1428.75 415.526C1412.19 424.903 1392.84 429.591 1370.69 429.591Z" fill="#7A14D9"/>
<path d="M1293.44 308.913C1290.05 307.823 1286.35 309.49 1285.26 312.881C1282.72 320.759 1281.65 328.952 1282.1 337.149C1282.66 347.413 1285.6 357.474 1290.74 366.729C1295.87 375.985 1303.1 384.246 1311.98 391.021C1320.87 397.795 1331.24 402.944 1342.47 406.159C1353.69 409.374 1365.55 410.59 1377.33 409.734C1389.11 408.878 1400.57 405.968 1411.03 401.178C1421.48 396.387 1430.72 389.814 1438.19 381.852C1443.88 375.792 1448.45 369.022 1451.76 361.783C1453.44 358.113 1451.17 353.988 1447.26 353V353C1443.74 352.112 1440.17 354.109 1438.65 357.405C1435.87 363.437 1432.05 369.079 1427.31 374.133C1421.03 380.825 1413.26 386.349 1404.48 390.375C1395.69 394.4 1386.06 396.846 1376.16 397.565C1366.26 398.284 1356.3 397.262 1346.86 394.56C1337.43 391.859 1328.71 387.532 1321.25 381.839C1313.78 376.146 1307.7 369.203 1303.39 361.425C1299.07 353.647 1296.61 345.192 1296.13 336.567C1295.79 330.427 1296.47 324.289 1298.13 318.34C1299.22 314.436 1297.3 310.152 1293.44 308.913V308.913Z" fill="#F5F5F5"/>
<path d="M1301.02 281.583L1300.67 303.945L1314.75 312.664L1314.77 312.677L1314.79 312.691C1314.96 312.798 1315.13 312.907 1315.3 313.017C1315.71 313.277 1316.12 313.54 1316.46 313.778C1316.98 314.134 1317.54 314.568 1318.03 315.132C1319.14 316.421 1319.44 317.91 1319.41 319.633L1319.41 319.666L1319.41 319.699C1319.32 321.803 1319.13 324.07 1318.25 325.822C1317.77 326.776 1317.04 327.65 1315.99 328.26C1314.94 328.861 1313.77 329.095 1312.55 329.097L1312.4 329.097L1312.24 329.079L1286.42 326.002L1260.49 329.247L1260.33 329.266L1260.17 329.267C1258.36 329.271 1256.83 328.7 1255.7 327.603C1254.63 326.568 1254.13 325.277 1253.88 324.203C1253.64 323.119 1253.6 322.054 1253.6 321.267C1253.61 320.926 1253.62 320.61 1253.62 320.37C1253.63 320.331 1253.63 320.293 1253.63 320.258C1253.64 320.012 1253.63 319.933 1253.64 319.933C1253.64 319.933 1253.64 319.935 1253.64 319.938L1253.63 319.879L1253.63 319.803C1253.58 318.39 1253.89 316.999 1254.7 315.71C1255.5 314.453 1256.67 313.452 1258.1 312.627C1258.1 312.626 1258.11 312.624 1258.11 312.623L1272.89 303.988L1273.3 281.613L1238.12 285.151L1237.99 285.163L1237.87 285.164C1231.56 285.179 1227.76 283.047 1225.8 279.75C1224.05 276.821 1224.11 273.448 1224.14 271.689C1224.15 271.643 1224.15 271.597 1224.15 271.553C1224.21 267.51 1225.4 264.669 1227.31 262.535C1228.93 260.72 1231 259.544 1232.66 258.604C1232.83 258.507 1233 258.413 1233.16 258.32L1233.27 258.256L1233.39 258.203L1274.07 240.066L1274.64 209.562C1274.64 209.562 1274.64 209.561 1274.64 209.56C1274.7 205.804 1276.2 202.11 1278.63 199.333C1281.07 196.547 1284.58 194.544 1288.67 194.537C1296.95 194.516 1302.25 202.347 1302.14 209.568L1301.02 281.583ZM1301.02 281.583L1336.15 284.93L1336.28 284.942L1336.41 284.942C1342.72 284.929 1346.54 282.779 1348.57 279.53C1350.39 276.622 1350.44 273.273 1350.47 271.509C1350.47 271.46 1350.48 271.412 1350.48 271.366L1350.48 271.361C1350.54 267.318 1349.45 264.457 1347.58 262.301C1346 260.474 1343.94 259.297 1342.32 258.368C1342.15 258.272 1341.99 258.178 1341.83 258.087L1341.72 258.022L1341.6 257.968L1301.66 239.986L1302.14 209.57L1301.02 281.583Z" fill="#FFA81C" stroke="white" stroke-width="5"/>
<defs>
<linearGradient id="paint0_linear_33_696" x1="576.731" y1="411.122" x2="696.616" y2="449.142" gradientUnits="userSpaceOnUse">
<stop stop-color="#5D11A3"/>
<stop offset="1" stop-color="#7A14D9"/>
</linearGradient>
<linearGradient id="paint1_linear_33_696" x1="443.064" y1="397.327" x2="527.974" y2="550.016" gradientUnits="userSpaceOnUse">
<stop stop-color="#FFA81C"/>
<stop offset="1" stop-color="#FECD00"/>
</linearGradient>
</defs>
</svg>
